<?xml version="1.0" encoding="utf-8"?>
<!-- Generator: Adobe Illustrator 16.0.4, SVG Export Plug-In . SVG Version: 6.00 Build 0)  -->
<!DOCTYPE svg PUBLIC "-//W3C//DTD SVG 1.1//EN" "http://www.w3.org/Graphics/SVG/1.1/DTD/svg11.dtd">
<svg version="1.1" id="Layer_1" xmlns="http://www.w3.org/2000/svg" xmlns:xlink="http://www.w3.org/1999/xlink" x="0px" y="0px"
	 width="612px" height="792px" viewBox="0 0 612 792" enable-background="new 0 0 612 792" xml:space="preserve">
<g>
	<g>
		<path fill="none" d="M590.05,764.021c-292.941,0-274.803,0-567.744,0c0-390.587,6.277-345.455,6.277-736.043
			c292.941,0,275.782,0,568.723,0C597.306,418.566,590.05,373.434,590.05,764.021z M562.137,763.104
			c2.049-1.27,3.569-1.965,4.785-3.012c4.331-3.734,9.165-7.363,9.674-13.602c1.176-14.422,2.594-28.863,2.827-43.314
			c0.348-21.633-0.392-43.279-0.395-64.92c-0.009-49.76-1.202-99.518,0.905-149.277c1.274-30.088,1.64-60.225,1.827-90.344
			c0.201-32.031-0.428-64.066-0.441-96.101c-0.018-39.283,0.254-78.566,0.352-117.849c0.095-37.855,0.156-75.71,0.161-113.566
			c0-6.57-0.254-13.146-0.61-19.708c-0.117-2.16,0.303-3.708,1.851-5.301c1.775-1.829,3.1-4.096,4.62-6.172
			c-0.192-0.302-0.387-0.604-0.579-0.905c-1.289,0-2.578,0-3.866,0c-53.493,0.001-106.987-0.029-160.482,0.032
			c-9.912,0.012-19.823,0.418-29.735,0.589c-2.31,0.04-4.638-0.339-6.932-0.171c-3.103,0.228-6.173,1.087-9.271,1.174
			c-28.385,0.791-56.79,0.375-85.149,2.77c-13.832,1.168-27.814,0.559-41.729,0.751c-0.911,0.012-1.821,0.001-2.631,0.001
			c-0.341-1.495-0.585-2.559-0.948-4.149c-1.785,1.135-3.153,2.114-4.623,2.901c-1.031,0.552-2.2,1.19-3.312,1.198
			c-44.701,0.324-89.369,0.288-133.93-4.478C87.753,37.86,70.8,38.485,54.024,40.875c-1.751,0.25-3.787,0.585-5.073,1.637
			c-4.409,3.601-8.641,7.436-12.718,11.412c-1.123,1.095-1.931,2.945-2.077,4.523c-0.371,3.977-0.51,8.007-0.34,11.999
			c1.026,24.081,2.223,48.153,3.249,72.235c0.795,18.661,1.957,37.328,2.02,55.996c0.166,48.723-0.32,97.448-0.295,146.172
			c0.055,110.609,0.168,221.22,0.489,331.828c0.058,20.004,1.134,40.006,1.954,60c0.146,3.566,0.236,6.637-2.756,9.246
			c-1.396,1.217-2.116,3.209-3.457,5.352c2.793,0,4.542,0,6.366,0c0.137,1.549,0.257,2.92,0.465,5.277
			c2.53-1.752,4.395-3.078,6.3-4.346c0.92-0.611,1.921-1.6,2.875-1.586c10.1,0.131,20.212,0.178,30.292,0.756
			c8.638,0.496,17.224,2.174,25.858,2.404c17.725,0.473,35.467,0.498,53.2,0.377c13.916-0.094,27.832-0.568,41.74-1.084
			c14.758-0.545,29.509-1.926,44.263-1.928c72.36-0.014,144.73-1.049,217.07,1.635c5.62,0.209,11.246,0.34,16.859,0.68
			c14.165,0.859,28.319,1.896,42.486,2.709c9.036,0.518,18.091,0.68,27.128,1.16c4.662,0.248,9.386,1.232,13.463-2.762
			C563.014,757.098,562.644,759.631,562.137,763.104z"/>
		<path fill-rule="evenodd" clip-rule="evenodd" d="M564.494,764.021c0.507-3.473,0.877-6.006,1.246-8.537
			c-4.076,3.994-8.801,3.01-13.463,2.762c-9.037-0.48-18.092-0.643-27.128-1.16c-14.166-0.812-28.321-1.85-42.486-2.709
			c-5.613-0.34-11.239-0.471-16.859-0.68c-72.34-2.682-144.71-1.648-217.07-1.635c-14.754,0.002-29.504,1.383-44.263,1.93
			c-13.908,0.514-27.824,0.988-41.74,1.084c-17.733,0.119-35.476,0.094-53.2-0.379c-8.634-0.23-17.22-1.908-25.857-2.404
			c-10.08-0.578-20.192-0.625-30.292-0.756c-0.953-0.012-1.954,0.975-2.875,1.586c-1.904,1.268-3.769,2.594-6.3,4.346
			c-0.208-2.357-0.329-3.727-0.465-5.277c-1.823,0-3.573,0-6.365,0c1.34-2.143,2.062-4.135,3.457-5.352
			c2.992-2.609,2.903-5.68,2.756-9.246c-0.82-19.994-1.896-39.996-1.954-60c-0.321-110.607-0.434-221.219-0.489-331.828
			c-0.025-48.724,0.461-97.449,0.295-146.172c-0.064-18.668-1.226-37.335-2.02-55.996c-1.025-24.081-2.223-48.154-3.249-72.235
			c-0.17-3.991-0.031-8.021,0.34-11.999c0.146-1.579,0.955-3.429,2.077-4.523c4.077-3.975,8.309-7.811,12.718-11.411
			c1.287-1.051,3.323-1.387,5.073-1.637c16.776-2.39,33.729-3.015,50.481-1.224c44.562,4.766,89.229,4.802,133.93,4.478
			c1.112-0.008,2.281-0.646,3.312-1.198c1.47-0.787,2.838-1.766,4.623-2.901c0.364,1.591,0.607,2.654,0.949,4.149
			c0.81,0,1.72,0.011,2.631-0.001c13.914-0.193,27.896,0.417,41.729-0.752c28.359-2.395,56.764-1.979,85.149-2.77
			c3.098-0.086,6.168-0.946,9.271-1.174c2.294-0.168,4.622,0.211,6.931,0.171c9.912-0.17,19.823-0.577,29.736-0.589
			c53.494-0.062,106.988-0.031,160.481-0.032c1.288,0,2.577,0,3.867,0c0.192,0.302,0.386,0.603,0.578,0.905
			c-1.521,2.077-2.844,4.344-4.619,6.172c-1.549,1.593-1.968,3.141-1.852,5.301c0.356,6.562,0.61,13.137,0.61,19.708
			c-0.005,37.856-0.066,75.711-0.16,113.566c-0.099,39.283-0.369,78.565-0.353,117.848c0.014,32.035,0.643,64.07,0.441,96.102
			c-0.188,30.118-0.553,60.255-1.826,90.343c-2.107,49.762-0.915,99.518-0.906,149.277c0.004,21.641,0.743,43.287,0.395,64.92
			c-0.232,14.451-1.651,28.893-2.827,43.314c-0.509,6.238-5.343,9.867-9.673,13.602
			C568.063,762.057,566.543,762.752,564.494,764.021z M54.929,402.697c0,1.4,0,2.621,0,3.844c0,73.807,0.019,147.613-0.007,221.42
			c-0.012,35.469,0.657,70.918,2.519,106.344c0.152,2.9,0.912,3.764,3.929,3.758c11.528-0.027,23.067,0.066,34.582,0.572
			c7.116,0.311,14.185,1.975,21.293,2.115c21.923,0.434,43.854,0.506,65.782,0.553c8.578,0.02,17.159-0.32,25.733-0.646
			c21.902-0.828,43.794-2.189,65.702-2.51c30.031-0.439,60.073-0.111,90.112-0.115c2.098,0,4.197-0.08,6.293,0.008
			c1.619,0.068,2.157-0.609,2.187-2.176c0.144-7.816,0.344-15.633,0.57-23.447c0.058-1.996-0.583-2.803-2.782-2.844
			c-16.007-0.295-32.012-0.717-48.018-1.131c-8.099-0.207-16.2-0.402-24.296-0.738c-16.853-0.697-33.702-1.461-50.55-2.266
			c-1.95-0.092-2.526,0.607-2.425,2.445c0.28,5.043,0.53,10.092,0.633,15.141c0.027,1.352-0.075,3.109-0.875,4.002
			c-3.032,3.385-6.338,6.527-9.633,9.666c-0.606,0.576-1.638,0.709-2.681,1.131c-0.158-0.914-0.317-1.449-0.334-1.988
			c-0.233-7.143-0.393-14.289-0.677-21.43c-0.426-10.736,6.289-16.832,14.302-22.025c1.021-0.66,2.562-0.742,3.855-0.719
			c5.904,0.109,11.806,0.34,17.708,0.551c11.813,0.42,23.626,0.818,35.437,1.295c16.756,0.678,33.507,1.529,50.267,2.084
			c9.719,0.322,19.45,0.195,29.175,0.291c4.405,0.045,4.711,0.314,4.644,4.793c-0.149,9.912-0.33,19.822-0.599,29.73
			c-0.067,2.477-0.518,4.945-0.83,7.766c0.929,0.072,2.402,0.277,3.877,0.283c13.826,0.055,27.653,0.062,41.479,0.105
			c6.578,0.02,13.17-0.154,19.734,0.176c19.123,0.965,38.233,2.178,57.354,3.221c13.797,0.75,27.598,1.465,41.403,2.039
			c5.573,0.23,11.166,0.037,17.167,0.037c0.406-9.539,1.214-19.424,1.183-29.307c-0.11-35.846-0.807-71.693-0.697-107.539
			c0.103-34.027-0.714-68.051,0.885-102.088c1.382-29.414,1.329-58.896,1.947-88.346c0.04-1.885,0.032-3.35-2.48-3.465
			c-6.85-0.316-13.694-1.16-20.537-1.117c-25.264,0.156-50.524,0.629-75.787,0.896c-25.85,0.277-51.634-0.912-77.317-3.91
			c-9.872-1.152-19.715-2.543-29.572-3.826c-0.611,0.039-1.188,0.902-1.777,1.756c-9.694,14.023-19.209,28.178-29.16,42.018
			c-5.396,7.504-9.767,15.42-12.744,24.135c-0.193,0.564-0.234,1.184-0.371,1.895c2.183,0,4.1,0,6.803,0
			c-1.347,2.082-2.368,3.613-3.342,5.174c-4.288,6.887-12.064,8.27-18.517,11.742c-0.095,0.049-0.317-0.139-0.644-0.295
			c0.12-0.852,0.245-1.746,0.393-2.801c-3.226-1.031-4.11-3.775-5.11-6.65c-1.936-5.559-3.687-11.275-6.431-16.438
			c-4.779-8.986-9.897-17.842-15.568-26.289c-3.514-5.234-7.967-9.975-12.605-14.285c-6.879-6.393-15.301-11.068-20.496-18.43
			c-2.494,0.705-4.542,1.803-6.58,1.785c-47.084-0.402-94.198,1.381-141.248-1.729c-9.405-0.621-18.806-1.357-28.19-2.229
			C64.382,404.262,59.811,403.403,54.929,402.697z M239.036,395.182c-0.433-1.521-0.699-2.421-0.944-3.328
			c-3.613-13.361-3.063-26.238,4.801-38.112c8.63-13.032,20.016-23.139,33.474-30.994c8.578-5.006,17.723-6.009,27.309-4.025
			c7.024,1.455,11.674,5.388,12.841,12.731c0.408,2.566,0.564,5.172,0.859,8c1.611-1.402,3.006-2.688,4.475-3.88
			c9.506-7.722,19.583-13.941,32.306-15.124c13.958-1.297,21.387,2.509,25.79,15.4c5.301,15.527,5.409,31.013-2.239,46.013
			c-1.15,2.255-2.304,4.509-3.728,7.295c4.045,1.354,7.691,3.194,11.521,3.737c10.549,1.496,21.15,2.778,31.776,3.542
			c16.715,1.203,33.457,2.233,50.206,2.722c12.373,0.361,24.774-0.36,37.164-0.415c20.781-0.091,41.562-0.046,62.344-0.032
			c3.707,0.003,3.745,0.061,3.705-3.656c-0.336-30.601-0.987-61.201-0.959-91.802c0.038-41.186,0.772-82.371,0.879-123.558
			c0.097-37.564-0.239-75.13-0.407-112.696c-0.019-4.246-1.446-7.968-4.229-11.248c-1.292-1.523-2.636-2.094-4.631-2.09
			c-40.905,0.068-81.811,0.068-122.718,0.082c-4.176,0.002-4.235,0.006-4.242,4.209c-0.049,32.992-0.138,65.983-0.035,98.975
			c0.015,4.961-0.397,9.483-4.238,13.057c-0.082,0.077,0.009,0.338,0.03,0.762c2.293,0,4.601,0,7.159,0
			c-0.211,0.907-0.205,1.612-0.519,2.116c-2.812,4.518-6.394,8.308-11.052,10.938c-1.024,0.578-2.38,0.892-3.556,0.824
			c-4.18-0.238-8.396-0.401-12.509-1.118c-16.478-2.875-32.707-7.144-49.434-8.651c-2.144-0.193-3.311,0.032-4.579,2.051
			c-12.936,20.567-31.619,30.147-55.879,28.522c-6.553-0.439-12.6-2.522-17.956-6.613c-6.013-4.594-10.596-10.386-14.824-16.527
			c-3.919-5.692-4.243-4.319-0.155-9.909c0.06-0.083-0.086-0.317-0.139-0.487c-2.481,0-4.958-0.049-7.432,0.008
			c-14.485,0.334-28.968,0.879-43.454,0.938c-4.696,0.019-8.579,0.421-11.661,4.547c-1.576,2.108-4.253,3.396-6.434,5.054
			c-0.268-0.217-0.534-0.434-0.802-0.65c-0.127-2.884-0.256-5.768-0.385-8.679c-1.576-0.128-2.868-0.235-4.828-0.395
			c1.058-1.757,1.636-3.312,2.708-4.368c1.961-1.934,2.354-4.137,2.219-6.728c-0.704-13.414-1.243-26.836-2.009-40.245
			c-0.369-6.458-1.118-12.893-1.681-19.339c-1.25-14.289-4.122-28.541-1.225-43.206c-1.272,0-2.784,0.006-4.296-0.001
			c-25.161-0.121-50.321-0.263-75.356-3.262c-19.854-2.379-39.75-2.076-59.666-1.102c-1.981,0.097-2.703,0.75-2.594,2.72
			c0.249,4.471,0.335,8.952,0.537,13.426c1,22.173,2.081,44.344,3.008,66.52c0.769,18.376,1.905,36.759,1.935,55.14
			c0.102,64.075-0.207,128.149-0.359,192.225c-0.001,1.088,0,2.176,0,3.653c1.651-1.252,2.857-2.148,4.043-3.072
			c1.68-1.31,2.932-1.389,4.544,0.48c1.289,1.495,3.259,2.719,5.16,3.3c3.069,0.939,6.309,1.472,9.515,1.785
			c7.955,0.779,15.929,1.384,23.901,1.969c9.784,0.718,19.569,1.812,29.363,1.926c34.704,0.403,69.412,0.458,104.118,0.645
			C236.594,395.187,237.613,395.182,239.036,395.182z M420.368,169.742c0.298-39.062-0.422-77.405,0.85-115.697
			c-9.29,0-18.863,0-27.808,0c0.083,10.357,0.152,20.427,0.248,30.497c0.103,10.791-6.497,17.198-14.724,22.531
			c-0.537,0.348-1.234,0.563-1.877,0.62c-6.924,0.608-13.846,1.576-20.779,1.678c-34.783,0.512-69.593-0.67-104.349,1.735
			c-3.793,0.262-7.627,0.464-11.412,0.226c-5.359-0.338-5.578-0.884-5.501-6.329c0.204-14.392,0.279-28.787,0.544-43.178
			c0.046-2.475-0.827-3.04-3.115-3.003c-7.339,0.118-14.682,0.043-22.024,0.037c-6.549-0.005-6.517-0.011-5.99,6.46
			c1.399,17.169,2.908,34.332,4.101,51.516c0.89,12.828,1.388,25.685,1.987,38.532c0.18,3.853,0.067,3.947,3.943,3.873
			c21.728-0.418,43.454-1.201,65.181-1.253c29.614-0.073,59.295-1.658,88.773,2.724c11.941,1.775,23.875,3.62,35.782,5.609
			C409.422,167.19,414.574,168.499,420.368,169.742z M313.626,469.146c2.248-3.406,3.914-6.307,5.937-8.936
			c13.028-16.93,24.779-34.732,36.224-52.748c8.85-13.932,16.463-28.129,13.685-45.63c-1.496-9.416-3.646-18.413-11.283-24.839
			c-1.905-1.603-4.724-2.978-7.116-2.967c-5.58,0.025-11.266,0.445-16.707,1.631c-10.3,2.246-15.664,7.891-16.768,16.455
			c-1.004,7.796-6.773,11.69-12.713,15.422c-0.24,0.152-0.686-0.018-1.457-0.061c0.392-2.569,0.755-4.957,1.135-7.449
			c-0.735,0-1.44,0-2.377,0c0.422-2.884,1.032-5.58,1.176-8.299c0.65-12.325-3.982-17.64-13.456-19.496
			c-1.771-0.347-3.568-0.68-5.364-0.755c-15.987-0.671-36.273,10.489-34.871,34.979c0.885,15.447,6.673,28.556,19.673,37.578
			c13.248,9.195,22.97,21.23,30.568,35.287C305.06,448.842,311.013,457.953,313.626,469.146z M323.759,95.716
			c0.002,0.077,0.004,0.154,0.006,0.231c12.865,0,25.731,0.088,38.595-0.043c5.037-0.052,10.064-0.695,15.104-0.869
			c2.197-0.076,2.651-1.12,2.736-3.016c0.542-11.767-0.67-23.379-2.88-34.917c-0.329-1.72-1.172-2.303-2.948-2.168
			c-4.083,0.308-8.181,0.509-12.274,0.58c-25.613,0.445-51.238,0.205-76.816,2.326c-10.993,0.912-22.077,0.777-33.122,0.969
			c-2.289,0.04-2.913,0.831-2.922,3.009c-0.04,10.386-0.221,20.771-0.344,31.157c-0.053,4.427,0.246,4.877,4.607,4.733
			c7.325-0.241,14.641-0.854,21.967-1.04C291.561,96.262,307.661,96.023,323.759,95.716z M282.358,171.616
			c6.84,9.195,13.816,16.827,24.616,19.257c12.045,2.71,23.624,0.757,34.743-4.442c2.162-1.011,2.543-2.803,2.881-4.839
			c0.261-1.572,0.689-3.166,1.36-4.604c0.537-1.152,1.546-2.085,2.55-3.379C326.59,170.474,304.886,172.103,282.358,171.616z"/>
		<path fill-rule="evenodd" clip-rule="evenodd" fill="none" d="M52.572,401.779c4.881,0.705,9.453,1.564,14.065,1.992
			c9.385,0.871,18.785,1.607,28.19,2.229c47.05,3.109,94.163,1.326,141.248,1.729c2.039,0.016,4.086-1.08,6.581-1.785
			c5.194,7.361,13.616,12.037,20.496,18.43c4.638,4.311,9.091,9.051,12.604,14.285c5.67,8.445,10.789,17.301,15.568,26.289
			c2.745,5.162,4.496,10.879,6.431,16.438c1,2.875,1.884,5.619,5.11,6.65c-0.147,1.055-0.272,1.949-0.392,2.801
			c0.326,0.156,0.549,0.344,0.644,0.293c6.451-3.471,14.228-4.854,18.517-11.74c0.974-1.561,1.995-3.092,3.342-5.174
			c-2.703,0-4.621,0-6.803,0c0.137-0.711,0.178-1.33,0.371-1.895c2.977-8.715,7.347-16.631,12.744-24.137
			c9.951-13.838,19.465-27.994,29.16-42.018c0.59-0.852,1.166-1.715,1.777-1.754c9.857,1.281,19.7,2.674,29.572,3.826
			c25.684,2.996,51.467,4.186,77.316,3.91c25.263-0.268,50.524-0.742,75.788-0.896c6.842-0.043,13.688,0.801,20.537,1.117
			c2.512,0.115,2.521,1.58,2.48,3.465c-0.618,29.449-0.565,58.932-1.947,88.344c-1.599,34.039-0.782,68.062-0.885,102.09
			c-0.109,35.844,0.587,71.693,0.697,107.539c0.03,9.883-0.776,19.768-1.184,29.307c-6,0-11.593,0.193-17.167-0.039
			c-13.805-0.572-27.606-1.287-41.402-2.039c-19.12-1.041-38.23-2.254-57.354-3.219c-6.563-0.33-13.155-0.156-19.734-0.176
			c-13.825-0.043-27.652-0.051-41.479-0.105c-1.476-0.006-2.949-0.211-3.877-0.283c0.312-2.82,0.763-5.289,0.83-7.766
			c0.269-9.908,0.448-19.82,0.599-29.73c0.067-4.479-0.238-4.748-4.644-4.793c-9.725-0.098-19.457,0.031-29.175-0.291
			c-16.76-0.555-33.511-1.406-50.267-2.084c-11.811-0.477-23.623-0.875-35.437-1.295c-5.902-0.211-11.804-0.441-17.708-0.551
			c-1.294-0.023-2.835,0.059-3.855,0.719c-8.014,5.193-14.729,11.289-14.302,22.025c0.284,7.141,0.444,14.287,0.677,21.43
			c0.017,0.539,0.176,1.074,0.334,1.986c1.043-0.422,2.075-0.553,2.681-1.129c3.296-3.139,6.602-6.281,9.634-9.666
			c0.8-0.893,0.902-2.65,0.875-4.002c-0.103-5.049-0.354-10.098-0.633-15.141c-0.101-1.838,0.476-2.539,2.425-2.445
			c16.848,0.805,33.698,1.568,50.55,2.266c8.095,0.336,16.196,0.529,24.296,0.738c16.006,0.414,32.011,0.836,48.018,1.131
			c2.198,0.041,2.84,0.848,2.782,2.844c-0.227,7.814-0.427,15.629-0.57,23.447c-0.029,1.564-0.567,2.244-2.188,2.176
			c-2.095-0.088-4.195-0.008-6.293-0.008c-30.038,0.004-60.081-0.324-90.111,0.115c-21.908,0.32-43.8,1.682-65.702,2.51
			c-8.574,0.326-17.155,0.666-25.733,0.646c-21.928-0.047-43.859-0.119-65.782-0.553c-7.108-0.141-14.177-1.805-21.293-2.115
			c-11.515-0.506-23.054-0.6-34.582-0.574c-3.018,0.008-3.777-0.855-3.93-3.758c-1.862-35.424-2.531-70.873-2.519-106.342
			c0.026-73.807,0.008-147.613,0.008-221.42C52.572,404.4,52.572,403.18,52.572,401.779z M182.937,739.318
			c1.254-0.5,2.375-0.637,3.04-1.26c3.181-2.984,6.378-5.975,9.261-9.234c0.956-1.08,1.333-2.967,1.386-4.506
			c0.334-9.715,0.766-19.441,0.674-29.158c-0.211-22.393-0.703-44.783-1.077-67.174c-0.019-1.094-0.002-2.186-0.002-3.387
			c1.823,0,3.159-0.09,4.48,0.016c8.922,0.711,17.829,1.799,26.764,2.133c16.573,0.623,33.164,1.193,49.743,1.074
			c15.991-0.113,31.978-1.09,47.964-1.746c13.604-0.557,27.209-1.725,40.809-1.656c15.71,0.08,31.41,1.33,47.122,1.852
			c8.212,0.271,8.74,0.145,8.183,8.273c-1.074,15.662-3.047,31.266-4.06,46.934c-1.015,15.682-1.321,31.41-1.902,47.119
			c-0.036,0.973,0.246,1.955,0.386,2.98c4.62-1.236,12.784-9.092,13.765-13.043c0.178-0.717,0.135-1.512,0.075-2.26
			c-0.113-1.406-0.489-2.812-0.446-4.207c0.312-10.287,0.385-20.596,1.14-30.854c1.2-16.326,2.967-32.607,4.29-48.928
			c0.414-5.105,0.269-10.268,0.181-15.4c-0.045-2.592-1.219-4.287-4.291-4.057c-2.174,0.162-4.38-0.096-6.57-0.168
			c-20.38-0.678-40.758-1.357-61.137-2.031c-0.91-0.029-1.822-0.004-2.893-0.004c0.78-1.676,1.429-3.07,2.092-4.498
			c-1.35-0.68-2.406-1.111-3.354-1.717c-1.039-0.662-1.992-1.467-2.959-2.238c-9.238-7.379-19.34-13.254-30.773-16.377
			c-10.967-2.998-21.463-1.721-31.171,4.707c-8.929,5.914-16.482,13.221-22.855,21.768c-0.965,1.295-1.919,1.85-3.522,1.758
			c-4.377-0.246-8.763-0.332-13.144-0.518c-7.329-0.311-14.66-0.584-21.983-0.99c-10.55-0.582-21.1-1.209-31.641-1.943
			c-4.011-0.279-7.299,1.043-10.084,3.773c-1.972,1.932-4.177,3.758-5.632,6.043c-1.305,2.049-2.431,4.662-2.414,7.02
			c0.067,9.428,0.91,18.852,0.921,28.277c0.029,25.26-0.225,50.518-0.362,75.777C182.925,733.922,182.937,736.373,182.937,739.318z"
			/>
		<path fill-rule="evenodd" clip-rule="evenodd" fill="none" d="M236.678,394.263c-1.423,0-2.442,0.005-3.462,0
			c-34.707-0.187-69.414-0.241-104.118-0.644c-9.793-0.114-19.579-1.208-29.363-1.926c-7.973-0.585-15.946-1.19-23.902-1.969
			c-3.206-0.313-6.445-0.846-9.515-1.784c-1.901-0.582-3.871-1.806-5.16-3.301c-1.612-1.869-2.863-1.79-4.543-0.48
			c-1.186,0.925-2.392,1.82-4.043,3.073c0-1.478-0.002-2.565,0-3.654c0.152-64.075,0.46-128.149,0.358-192.224
			c-0.029-18.381-1.167-36.763-1.935-55.14c-0.927-22.177-2.008-44.347-3.008-66.521c-0.202-4.474-0.289-8.955-0.537-13.426
			c-0.109-1.971,0.613-2.623,2.594-2.72c19.916-0.974,39.812-1.278,59.666,1.102c25.034,3,50.195,3.141,75.355,3.262
			c1.512,0.007,3.023,0.001,4.296,0.001c-2.896,14.665-0.025,28.917,1.225,43.205c0.564,6.447,1.312,12.882,1.682,19.34
			c0.766,13.409,1.304,26.831,2.009,40.245c0.135,2.59-0.258,4.793-2.219,6.727c-1.071,1.056-1.649,2.611-2.707,4.368
			c1.96,0.16,3.252,0.266,4.828,0.395c0.129,2.911,0.257,5.795,0.385,8.679c0.268,0.217,0.535,0.433,0.803,0.65
			c2.18-1.659,4.857-2.945,6.434-5.054c3.082-4.126,6.965-4.528,11.661-4.547c14.486-0.059,28.969-0.603,43.454-0.938
			c2.474-0.057,4.95-0.008,7.432-0.008c0.053,0.17,0.199,0.405,0.139,0.487c-4.087,5.589-3.764,4.216,0.155,9.909
			c4.228,6.141,8.81,11.933,14.823,16.527c5.356,4.091,11.403,6.174,17.956,6.613c24.26,1.625,42.943-7.955,55.879-28.522
			c1.269-2.019,2.436-2.244,4.578-2.051c16.728,1.508,32.956,5.776,49.435,8.652c4.111,0.717,8.329,0.879,12.509,1.118
			c1.176,0.067,2.53-0.246,3.556-0.824c4.657-2.63,8.239-6.42,11.052-10.937c0.313-0.505,0.308-1.21,0.519-2.116
			c-2.559,0-4.866,0-7.159,0c-0.022-0.424-0.112-0.686-0.03-0.762c3.841-3.573,4.253-8.095,4.238-13.057
			c-0.104-32.991-0.014-65.982,0.035-98.975c0.006-4.203,0.066-4.207,4.242-4.209c40.906-0.014,81.812-0.014,122.718-0.082
			c1.994-0.004,3.338,0.567,4.631,2.09c2.782,3.28,4.211,7.002,4.229,11.248c0.168,37.566,0.504,75.131,0.407,112.696
			c-0.107,41.188-0.842,82.372-0.879,123.559c-0.028,30.601,0.622,61.201,0.958,91.802c0.041,3.715,0.003,3.658-3.705,3.656
			c-20.781-0.014-41.562-0.06-62.344,0.031c-12.389,0.055-24.79,0.777-37.163,0.415c-16.749-0.488-33.492-1.52-50.206-2.722
			c-10.626-0.764-21.228-2.045-31.776-3.542c-3.83-0.543-7.477-2.383-11.521-3.737c1.424-2.786,2.577-5.04,3.728-7.295
			c7.647-15,7.54-30.485,2.238-46.013c-4.402-12.891-11.831-16.697-25.79-15.399c-12.722,1.183-22.799,7.402-32.305,15.124
			c-1.469,1.193-2.863,2.479-4.475,3.88c-0.295-2.828-0.451-5.435-0.859-8c-1.167-7.343-5.817-11.276-12.841-12.731
			c-9.586-1.984-18.731-0.981-27.309,4.025c-13.459,7.856-24.844,17.962-33.475,30.994c-7.864,11.874-8.414,24.752-4.8,38.112
			C235.979,391.842,236.246,392.742,236.678,394.263z"/>
		<path fill-rule="evenodd" clip-rule="evenodd" fill="none" d="M418.011,168.823c-5.795-1.243-10.946-2.551-16.17-3.424
			c-11.908-1.988-23.841-3.833-35.782-5.609c-29.479-4.382-59.159-2.796-88.773-2.724c-21.728,0.053-43.454,0.835-65.182,1.253
			c-3.875,0.074-3.763-0.02-3.943-3.872c-0.598-12.847-1.097-25.704-1.987-38.532c-1.192-17.185-2.702-34.347-4.101-51.516
			c-0.526-6.471-0.558-6.465,5.991-6.46c7.341,0.006,14.684,0.08,22.024-0.038c2.288-0.037,3.161,0.528,3.115,3.003
			c-0.265,14.392-0.34,28.786-0.544,43.178c-0.077,5.444,0.143,5.99,5.502,6.328c3.785,0.238,7.618,0.037,11.411-0.226
			c34.756-2.405,69.566-1.223,104.349-1.735c6.934-0.102,13.855-1.07,20.778-1.678c0.643-0.057,1.341-0.271,1.878-0.62
			c8.227-5.333,14.826-11.74,14.723-22.531c-0.096-10.069-0.164-20.14-0.247-30.496c8.943,0,18.518,0,27.808,0
			C417.589,91.418,418.309,129.761,418.011,168.823z"/>
		<path fill-rule="evenodd" clip-rule="evenodd" fill="none" d="M311.269,468.227c-2.614-11.191-8.566-20.303-13.715-29.826
			c-7.598-14.057-17.32-26.092-30.568-35.287c-13-9.022-18.789-22.131-19.673-37.579c-1.403-24.49,18.883-35.649,34.87-34.979
			c1.796,0.075,3.594,0.408,5.364,0.755c9.474,1.856,14.105,7.17,13.456,19.496c-0.144,2.72-0.754,5.416-1.176,8.3
			c0.937,0,1.642,0,2.377,0c-0.38,2.492-0.743,4.88-1.135,7.449c0.771,0.043,1.216,0.213,1.458,0.061
			c5.939-3.732,11.708-7.626,12.712-15.422c1.104-8.564,6.468-14.21,16.768-16.456c5.441-1.186,11.127-1.605,16.707-1.63
			c2.393-0.011,5.211,1.364,7.115,2.966c7.639,6.427,9.788,15.424,11.283,24.839c2.779,17.501-4.835,31.698-13.685,45.63
			c-11.443,18.016-23.194,35.818-36.224,52.748C315.183,461.922,313.516,464.822,311.269,468.227z"/>
		<path fill-rule="evenodd" clip-rule="evenodd" fill="none" d="M321.401,94.798c-16.098,0.307-32.198,0.545-48.293,0.953
			c-7.326,0.186-14.641,0.799-21.967,1.04c-4.361,0.144-4.66-0.307-4.607-4.734c0.124-10.385,0.305-20.771,0.345-31.157
			c0.009-2.179,0.633-2.969,2.922-3.009c11.045-0.192,22.128-0.058,33.122-0.969c25.579-2.12,51.204-1.88,76.817-2.326
			c4.094-0.071,8.191-0.272,12.274-0.58c1.776-0.134,2.618,0.448,2.948,2.168c2.209,11.538,3.422,23.15,2.88,34.917
			c-0.086,1.895-0.539,2.939-2.736,3.015c-5.039,0.174-10.067,0.816-15.104,0.869c-12.864,0.131-25.729,0.043-38.596,0.043
			C321.405,94.952,321.403,94.875,321.401,94.798z"/>
		<path fill-rule="evenodd" clip-rule="evenodd" fill="none" d="M280.001,170.697c22.527,0.487,44.231-1.142,66.15,1.992
			c-1.004,1.295-2.014,2.227-2.551,3.379c-0.67,1.439-1.1,3.033-1.36,4.604c-0.337,2.036-0.718,3.829-2.88,4.839
			c-11.119,5.2-22.699,7.152-34.743,4.442C293.816,187.524,286.841,179.893,280.001,170.697z"/>
		<path fill-rule="evenodd" clip-rule="evenodd" d="M185.294,740.236c0-2.945-0.011-5.396,0.002-7.85
			c0.137-25.26,0.391-50.518,0.362-75.777c-0.01-9.426-0.853-18.85-0.921-28.277c-0.017-2.357,1.11-4.971,2.414-7.02
			c1.456-2.285,3.661-4.111,5.632-6.043c2.786-2.729,6.073-4.053,10.085-3.773c10.541,0.734,21.09,1.361,31.64,1.943
			c7.324,0.406,14.655,0.68,21.983,0.99c4.381,0.186,8.767,0.271,13.144,0.518c1.603,0.092,2.558-0.463,3.522-1.758
			c6.374-8.547,13.927-15.854,22.856-21.766c9.708-6.43,20.204-7.707,31.17-4.709c11.434,3.125,21.535,8.998,30.773,16.377
			c0.967,0.771,1.92,1.576,2.96,2.24c0.946,0.604,2.003,1.035,3.353,1.715c-0.662,1.428-1.312,2.822-2.092,4.5
			c1.07,0,1.983-0.027,2.893,0.002c20.38,0.674,40.758,1.354,61.137,2.031c2.19,0.072,4.396,0.33,6.57,0.168
			c3.072-0.229,4.247,1.465,4.291,4.057c0.088,5.133,0.234,10.295-0.181,15.402c-1.322,16.318-3.089,32.602-4.29,48.926
			c-0.755,10.258-0.827,20.566-1.14,30.854c-0.043,1.396,0.333,2.801,0.446,4.207c0.06,0.75,0.103,1.543-0.075,2.262
			c-0.98,3.949-9.145,11.805-13.765,13.041c-0.14-1.023-0.422-2.008-0.386-2.98c0.581-15.709,0.888-31.438,1.902-47.119
			c1.013-15.666,2.985-31.27,4.06-46.934c0.558-8.129,0.029-8.002-8.183-8.273c-15.712-0.521-31.412-1.771-47.121-1.85
			c-13.601-0.07-27.204,1.1-40.81,1.656c-15.986,0.654-31.973,1.631-47.964,1.744c-16.579,0.119-33.17-0.451-49.743-1.072
			c-8.936-0.336-17.842-1.424-26.765-2.135c-1.321-0.105-2.657-0.016-4.48-0.016c0,1.201-0.016,2.295,0.002,3.387
			c0.374,22.391,0.866,44.781,1.077,67.174c0.091,9.719-0.339,19.443-0.674,29.16c-0.053,1.537-0.43,3.424-1.386,4.504
			c-2.883,3.262-6.08,6.252-9.262,9.234C187.669,739.6,186.549,739.738,185.294,740.236z M340.146,612.949
			c-8.847-5.213-16.936-10.83-26.599-12.729c-5.045-0.992-10.435-1.139-15.561-0.609c-9.354,0.967-15.077,7.16-19.024,15.369
			C299.095,614.771,319.364,615.867,340.146,612.949z"/>
		<path fill-rule="evenodd" clip-rule="evenodd" fill="none" d="M337.788,612.029c-20.781,2.92-41.051,1.824-61.183,2.033
			c3.947-8.209,9.669-14.402,19.025-15.369c5.125-0.529,10.514-0.383,15.56,0.607C320.854,601.201,328.941,606.816,337.788,612.029z
			"/>
	</g>
</g>
</svg>
